# Blender v3.2.2 OBJ File: 'thrusterWIP.blend'
# www.blender.org
mtllib thrusterWIP.mtl
o Cylinder
v -0.290460 -0.000000 0.014584
v -0.539645 -0.000000 0.222250
v -0.268350 0.111154 0.014584
v -0.498567 0.206513 0.222250
v -0.205386 0.205386 0.014584
v -0.381587 0.381587 0.222250
v -0.111154 0.268350 0.014584
v -0.206513 0.498567 0.222250
v 0.000000 0.290460 0.014584
v 0.000000 0.539645 0.222250
v 0.111154 0.268350 0.014584
v 0.206513 0.498567 0.222250
v 0.205386 0.205386 0.014584
v 0.381587 0.381587 0.222250
v 0.268350 0.111154 0.014584
v 0.498567 0.206513 0.222250
v 0.290460 -0.000000 0.014584
v 0.539645 -0.000000 0.222250
v 0.268350 -0.111154 0.014584
v 0.498567 -0.206513 0.222250
v 0.205386 -0.205386 0.014584
v 0.381587 -0.381587 0.222250
v 0.111154 -0.268350 0.014584
v 0.206513 -0.498567 0.222250
v -0.000000 -0.290460 0.014584
v -0.000000 -0.539645 0.222250
v -0.111154 -0.268350 0.014584
v -0.206513 -0.498567 0.222250
v -0.205386 -0.205386 0.014584
v -0.381587 -0.381587 0.222250
v -0.268350 -0.111154 0.014584
v -0.498567 -0.206513 0.222250
v -0.571216 0.236605 0.700432
v -0.618280 0.000000 0.700432
v -0.437190 0.437190 0.700432
v -0.236605 0.571216 0.700432
v 0.000000 0.618280 0.700432
v 0.236605 0.571216 0.700432
v 0.437190 0.437190 0.700432
v 0.571216 0.236605 0.700432
v 0.618280 -0.000000 0.700432
v 0.571216 -0.236605 0.700432
v 0.437190 -0.437190 0.700432
v 0.236605 -0.571216 0.700432
v -0.000000 -0.618280 0.700432
v -0.236605 -0.571216 0.700432
v -0.437190 -0.437190 0.700432
v -0.571216 -0.236605 0.700432
v -0.497368 0.206017 1.484959
v -0.538347 -0.000000 1.484959
v -0.380669 0.380669 1.484959
v -0.206017 0.497368 1.484959
v 0.000000 0.538347 1.484959
v 0.206017 0.497368 1.484959
v 0.380669 0.380669 1.484959
v 0.497368 0.206017 1.484959
v 0.538347 -0.000000 1.484959
v 0.497368 -0.206017 1.484959
v 0.380669 -0.380669 1.484959
v 0.206017 -0.497368 1.484959
v -0.000000 -0.538347 1.484959
v -0.206017 -0.497368 1.484959
v -0.380669 -0.380669 1.484959
v -0.497368 -0.206017 1.484959
v -0.344104 0.142533 2.131077
v -0.372456 -0.000000 2.131077
v -0.263366 0.263366 2.131077
v -0.142533 0.344104 2.131077
v 0.000000 0.372456 2.131077
v 0.142533 0.344104 2.131077
v 0.263366 0.263366 2.131077
v 0.344104 0.142533 2.131077
v 0.372456 -0.000000 2.131077
v 0.344104 -0.142533 2.131077
v 0.263366 -0.263366 2.131077
v 0.142533 -0.344104 2.131077
v -0.000000 -0.372456 2.131077
v -0.142533 -0.344104 2.131077
v -0.263366 -0.263366 2.131077
v -0.344104 -0.142533 2.131077
v -0.161131 0.066743 3.351739
v -0.174407 0.000000 3.351739
v -0.123324 0.123324 3.351739
v -0.066743 0.161131 3.351739
v 0.000000 0.174407 3.351739
v 0.066743 0.161131 3.351739
v 0.123324 0.123324 3.351739
v 0.161131 0.066743 3.351739
v 0.174407 -0.000000 3.351739
v 0.161131 -0.066743 3.351739
v 0.123324 -0.123324 3.351739
v 0.066743 -0.161131 3.351739
v -0.000000 -0.174407 3.351739
v -0.066743 -0.161131 3.351739
v -0.123324 -0.123324 3.351739
v -0.161131 -0.066743 3.351739
v -0.079809 0.033058 4.148962
v -0.086384 0.000000 4.148962
v -0.061083 0.061083 4.148962
v -0.033058 0.079809 4.148962
v 0.000000 0.086385 4.148962
v 0.033058 0.079809 4.148962
v 0.061083 0.061083 4.148962
v 0.079809 0.033058 4.148962
v 0.086384 0.000000 4.148962
v 0.079809 -0.033058 4.148962
v 0.061083 -0.061083 4.148962
v 0.033058 -0.079809 4.148962
v -0.000000 -0.086384 4.148962
v -0.033058 -0.079809 4.148962
v -0.061083 -0.061083 4.148962
v -0.079809 -0.033058 4.148962
vt 0.064446 0.000067
vt 0.064446 0.075484
vt 0.126730 0.075484
vt 0.126730 0.000067
vt 0.189013 0.075484
vt 0.189013 0.000067
vt 0.251296 0.075484
vt 0.251296 0.000067
vt 0.313580 0.075484
vt 0.313580 0.000067
vt 0.375863 0.075484
vt 0.375863 0.000067
vt 0.438147 0.075484
vt 0.438147 0.000067
vt 0.500430 0.075484
vt 0.500430 0.000067
vt 0.562713 0.075484
vt 0.562713 0.000067
vt 0.624997 0.075484
vt 0.624997 0.000067
vt 0.687280 0.075484
vt 0.687280 0.000067
vt 0.749563 0.075484
vt 0.749563 0.000067
vt 0.811847 0.075484
vt 0.811847 0.000067
vt 0.874130 0.075484
vt 0.874130 0.000067
vt 0.936414 0.075484
vt 0.936414 0.000067
vt 0.189013 0.188155
vt 0.251296 0.188155
vt 0.998697 0.075484
vt 0.998697 0.000067
vt 0.002163 0.000067
vt 0.002163 0.075484
vt 0.874130 0.188155
vt 0.811847 0.188155
vt 0.811847 0.371502
vt 0.874130 0.371502
vt 0.438147 0.188155
vt 0.375863 0.188155
vt 0.375863 0.371502
vt 0.438147 0.371502
vt 0.500430 0.188155
vt 0.562713 0.188155
vt 0.064446 0.188155
vt 0.126730 0.188155
vt 0.687280 0.188155
vt 0.749563 0.188155
vt 0.002163 0.188155
vt 0.313580 0.188155
vt 0.624997 0.188155
vt 0.936414 0.188155
vt 0.998697 0.188155
vt 0.936414 0.371502
vt 0.500430 0.371502
vt 0.998697 0.371502
vt 0.562713 0.371502
vt 0.064446 0.371502
vt 0.126730 0.371502
vt 0.002163 0.371502
vt 0.624997 0.371502
vt 0.189013 0.371502
vt 0.687280 0.371502
vt 0.251296 0.371502
vt 0.749564 0.371502
vt 0.313580 0.371502
vt 0.189013 0.526598
vt 0.251296 0.526598
vt 0.687280 0.526598
vt 0.749564 0.526598
vt 0.313580 0.526598
vt 0.811847 0.526598
vt 0.375863 0.526598
vt 0.874130 0.526598
vt 0.438147 0.526598
vt 0.936414 0.526598
vt 0.500430 0.526598
vt 0.998697 0.526598
vt 0.562713 0.526598
vt 0.064446 0.526598
vt 0.126730 0.526598
vt 0.002163 0.526598
vt 0.624997 0.526598
vt 0.500430 0.814113
vt 0.562713 0.814113
vt 0.064446 0.814113
vt 0.126730 0.814113
vt 0.002163 0.814113
vt 0.624997 0.814113
vt 0.189013 0.814113
vt 0.687280 0.814113
vt 0.251297 0.814113
vt 0.749564 0.814113
vt 0.313580 0.814113
vt 0.811847 0.814113
vt 0.375863 0.814113
vt 0.874130 0.814113
vt 0.438147 0.814113
vt 0.936414 0.814113
vt 0.998697 0.814113
vt 0.811847 1.000594
vt 0.874130 1.000594
vt 0.375863 1.000594
vt 0.438147 1.000594
vt 0.936414 1.000594
vt 0.500430 1.000594
vt 0.998697 1.000594
vt 0.562713 1.000594
vt 0.064446 1.000594
vt 0.126730 1.000594
vt 0.002163 1.000594
vt 0.624997 1.000594
vt 0.189013 1.000594
vt 0.687280 1.000594
vt 0.251297 1.000594
vt 0.749564 1.000594
vt 0.313580 1.000594
vn -0.6351 0.1263 -0.7620
vn -0.5384 0.3597 -0.7620
vn -0.3597 0.5384 -0.7620
vn -0.1263 0.6351 -0.7620
vn 0.1263 0.6351 -0.7620
vn 0.3597 0.5384 -0.7620
vn 0.5384 0.3597 -0.7620
vn 0.6351 0.1263 -0.7620
vn 0.6351 -0.1263 -0.7620
vn 0.5384 -0.3597 -0.7620
vn 0.3597 -0.5384 -0.7620
vn 0.1263 -0.6351 -0.7620
vn -0.1263 -0.6351 -0.7620
vn -0.3597 -0.5384 -0.7620
vn -0.5485 0.8209 -0.1592
vn -0.5384 -0.3597 -0.7620
vn -0.6351 -0.1263 -0.7620
vn -0.1941 -0.9759 0.0994
vn 0.5528 0.8273 0.0994
vn 0.9683 0.1926 -0.1592
vn -0.9683 0.1926 -0.1592
vn -0.1926 -0.9683 -0.1592
vn 0.5485 0.8209 -0.1592
vn 0.5485 -0.8209 -0.1592
vn -0.9683 -0.1926 -0.1592
vn -0.1926 0.9683 -0.1592
vn 0.9683 -0.1926 -0.1592
vn -0.5485 -0.8209 -0.1592
vn -0.8209 0.5485 -0.1592
vn 0.8209 0.5485 -0.1592
vn 0.1926 -0.9683 -0.1592
vn 0.1926 0.9683 -0.1592
vn 0.8209 -0.5485 -0.1592
vn -0.8209 -0.5485 -0.1592
vn -0.5528 -0.8273 0.0994
vn 0.8273 0.5528 0.0994
vn -0.8273 -0.5528 0.0994
vn 0.9759 0.1941 0.0994
vn -0.9759 0.1941 0.0994
vn -0.9759 -0.1941 0.0994
vn 0.9759 -0.1941 0.0994
vn -0.8273 0.5528 0.0994
vn 0.8273 -0.5528 0.0994
vn -0.5528 0.8273 0.0994
vn 0.5528 -0.8273 0.0994
vn -0.1941 0.9759 0.0994
vn 0.1941 -0.9759 0.0994
vn 0.1941 0.9759 0.0994
vn -0.5388 0.8063 0.2442
vn 0.5388 -0.8063 0.2442
vn -0.1892 0.9511 0.2442
vn 0.1892 -0.9511 0.2442
vn 0.1892 0.9511 0.2442
vn -0.1892 -0.9511 0.2442
vn 0.5388 0.8063 0.2442
vn -0.5388 -0.8063 0.2442
vn 0.8063 0.5388 0.2442
vn -0.8063 -0.5388 0.2442
vn 0.9511 0.1892 0.2442
vn -0.9511 0.1892 0.2442
vn -0.9511 -0.1892 0.2442
vn 0.9511 -0.1892 0.2442
vn -0.8063 0.5388 0.2442
vn 0.8063 -0.5388 0.2442
vn 0.9686 0.1927 0.1572
vn -0.9686 0.1927 0.1572
vn -0.9686 -0.1927 0.1572
vn 0.9686 -0.1927 0.1572
vn -0.8211 0.5487 0.1572
vn 0.8211 -0.5487 0.1572
vn -0.5487 0.8211 0.1572
vn 0.5487 -0.8211 0.1572
vn -0.1927 0.9686 0.1572
vn 0.1927 -0.9686 0.1572
vn 0.1927 0.9686 0.1572
vn -0.1927 -0.9686 0.1572
vn 0.5487 0.8211 0.1572
vn -0.5487 -0.8211 0.1572
vn 0.8211 0.5487 0.1572
vn -0.8211 -0.5487 0.1572
vn -0.1940 -0.9751 0.1077
vn 0.5523 0.8266 0.1077
vn -0.5523 -0.8266 0.1077
vn 0.8266 0.5523 0.1077
vn -0.8266 -0.5523 0.1077
vn 0.9751 0.1940 0.1077
vn -0.9751 0.1940 0.1077
vn -0.9751 -0.1940 0.1077
vn 0.9751 -0.1940 0.1077
vn -0.8266 0.5523 0.1077
vn 0.8266 -0.5523 0.1077
vn -0.5523 0.8266 0.1077
vn 0.5523 -0.8266 0.1077
vn -0.1940 0.9751 0.1077
vn 0.1940 -0.9751 0.1077
vn 0.1940 0.9751 0.1077
usemtl Material.001
s off
f 1/1/1 2/2/1 4/3/1 3/4/1
f 3/4/2 4/3/2 6/5/2 5/6/2
f 5/6/3 6/5/3 8/7/3 7/8/3
f 7/8/4 8/7/4 10/9/4 9/10/4
f 9/10/5 10/9/5 12/11/5 11/12/5
f 11/12/6 12/11/6 14/13/6 13/14/6
f 13/14/7 14/13/7 16/15/7 15/16/7
f 15/16/8 16/15/8 18/17/8 17/18/8
f 17/18/9 18/17/9 20/19/9 19/20/9
f 19/20/10 20/19/10 22/21/10 21/22/10
f 21/22/11 22/21/11 24/23/11 23/24/11
f 23/24/12 24/23/12 26/25/12 25/26/12
f 25/26/13 26/25/13 28/27/13 27/28/13
f 27/28/14 28/27/14 30/29/14 29/30/14
f 8/7/15 6/5/15 35/31/15 36/32/15
f 29/30/16 30/29/16 32/33/16 31/34/16
f 31/35/17 32/36/17 2/2/17 1/1/17
f 46/37/18 45/38/18 61/39/18 62/40/18
f 39/41/19 38/42/19 54/43/19 55/44/19
f 18/17/20 16/15/20 40/45/20 41/46/20
f 4/3/21 2/2/21 34/47/21 33/48/21
f 28/27/22 26/25/22 45/38/22 46/37/22
f 14/13/23 12/11/23 38/42/23 39/41/23
f 24/23/24 22/21/24 43/49/24 44/50/24
f 2/2/25 32/36/25 48/51/25 34/47/25
f 10/9/26 8/7/26 36/32/26 37/52/26
f 20/19/27 18/17/27 41/46/27 42/53/27
f 30/29/28 28/27/28 46/37/28 47/54/28
f 6/5/29 4/3/29 33/48/29 35/31/29
f 16/15/30 14/13/30 39/41/30 40/45/30
f 26/25/31 24/23/31 44/50/31 45/38/31
f 12/11/32 10/9/32 37/52/32 38/42/32
f 22/21/33 20/19/33 42/53/33 43/49/33
f 32/33/34 30/29/34 47/54/34 48/55/34
f 47/54/35 46/37/35 62/40/35 63/56/35
f 40/45/36 39/41/36 55/44/36 56/57/36
f 48/55/37 47/54/37 63/56/37 64/58/37
f 41/46/38 40/45/38 56/57/38 57/59/38
f 33/48/39 34/47/39 50/60/39 49/61/39
f 34/47/40 48/51/40 64/62/40 50/60/40
f 42/53/41 41/46/41 57/59/41 58/63/41
f 35/31/42 33/48/42 49/61/42 51/64/42
f 43/49/43 42/53/43 58/63/43 59/65/43
f 36/32/44 35/31/44 51/64/44 52/66/44
f 44/50/45 43/49/45 59/65/45 60/67/45
f 37/52/46 36/32/46 52/66/46 53/68/46
f 45/38/47 44/50/47 60/67/47 61/39/47
f 38/42/48 37/52/48 53/68/48 54/43/48
f 52/66/49 51/64/49 67/69/49 68/70/49
f 60/67/50 59/65/50 75/71/50 76/72/50
f 53/68/51 52/66/51 68/70/51 69/73/51
f 61/39/52 60/67/52 76/72/52 77/74/52
f 54/43/53 53/68/53 69/73/53 70/75/53
f 62/40/54 61/39/54 77/74/54 78/76/54
f 55/44/55 54/43/55 70/75/55 71/77/55
f 63/56/56 62/40/56 78/76/56 79/78/56
f 56/57/57 55/44/57 71/77/57 72/79/57
f 64/58/58 63/56/58 79/78/58 80/80/58
f 57/59/59 56/57/59 72/79/59 73/81/59
f 49/61/60 50/60/60 66/82/60 65/83/60
f 50/60/61 64/62/61 80/84/61 66/82/61
f 58/63/62 57/59/62 73/81/62 74/85/62
f 51/64/63 49/61/63 65/83/63 67/69/63
f 59/65/64 58/63/64 74/85/64 75/71/64
f 73/81/65 72/79/65 88/86/65 89/87/65
f 65/83/66 66/82/66 82/88/66 81/89/66
f 66/82/67 80/84/67 96/90/67 82/88/67
f 74/85/68 73/81/68 89/87/68 90/91/68
f 67/69/69 65/83/69 81/89/69 83/92/69
f 75/71/70 74/85/70 90/91/70 91/93/70
f 68/70/71 67/69/71 83/92/71 84/94/71
f 76/72/72 75/71/72 91/93/72 92/95/72
f 69/73/73 68/70/73 84/94/73 85/96/73
f 77/74/74 76/72/74 92/95/74 93/97/74
f 70/75/75 69/73/75 85/96/75 86/98/75
f 78/76/76 77/74/76 93/97/76 94/99/76
f 71/77/77 70/75/77 86/98/77 87/100/77
f 79/78/78 78/76/78 94/99/78 95/101/78
f 72/79/79 71/77/79 87/100/79 88/86/79
f 80/80/80 79/78/80 95/101/80 96/102/80
f 94/99/81 93/97/81 109/103/81 110/104/81
f 87/100/82 86/98/82 102/105/82 103/106/82
f 95/101/83 94/99/83 110/104/83 111/107/83
f 88/86/84 87/100/84 103/106/84 104/108/84
f 96/102/85 95/101/85 111/107/85 112/109/85
f 89/87/86 88/86/86 104/108/86 105/110/86
f 81/89/87 82/88/87 98/111/87 97/112/87
f 82/88/88 96/90/88 112/113/88 98/111/88
f 90/91/89 89/87/89 105/110/89 106/114/89
f 83/92/90 81/89/90 97/112/90 99/115/90
f 91/93/91 90/91/91 106/114/91 107/116/91
f 84/94/92 83/92/92 99/115/92 100/117/92
f 92/95/93 91/93/93 107/116/93 108/118/93
f 85/96/94 84/94/94 100/117/94 101/119/94
f 93/97/95 92/95/95 108/118/95 109/103/95
f 86/98/96 85/96/96 101/119/96 102/105/96
